<svg version="1.2" xmlns="http://www.w3.org/2000/svg" viewBox="0 0 512 512" width="512" height="512">
	<path fill="#6bbe66" d="m235.9 459.2c-24.8 19.1-55.8 30.5-89.5 30.5c-80.9 0-146.4-65.5-146.4-146.2c0-56.1 31.6-104.7 77.8-129.3c8.2 29 23.7 54.9 44.4 75.6c19.3 19.3 43.2 34.1 69.9 42.6q-0.4 5.6-0.4 11.3c0 44.4 16.7 84.8 44.2 115.5z" />
	<path fill="#ff4141" d="m511.5 343.7c0 80.8-65.5 146.3-146.4 146.3c-80.8 0-146.3-65.5-146.3-146.3q0-2.5 0.1-5.1c8.4 1.3 17.1 1.9 25.9 1.9c47.9 0 91.2-19.4 122.6-50.7c22.7-22.7 39.2-51.6 46.5-84c56.9 20.1 97.6 74.2 97.6 137.9z" />
	<path fill="#00a1f1" d="m244.8 313.5c-80.9 0-146.4-65.4-146.4-146.3c0-80.8 65.5-146.2 146.4-146.2c80.9 0 146.4 65.4 146.4 146.2c0 80.9-65.5 146.3-146.4 146.3z" />
</svg>